<svg xmlns="http://www.w3.org/2000/svg" version="1.1" xmlns:xlink="http://www.w3.org/1999/xlink" xmlns:svgjs="http://svgjs.dev/svgjs" width="1000" height="1000" viewBox="0 0 1000 1000"><rect width="1000" height="1000" fill="#000000"></rect><g transform="matrix(0.7,0,0,0.7,149.57575757575756,282.1265587044535)"><svg viewBox="0 0 396 247" data-background-color="#1a4b7e" preserveAspectRatio="xMidYMid meet" height="623" width="1000" xmlns="http://www.w3.org/2000/svg" xmlns:xlink="http://www.w3.org/1999/xlink"><g id="tight-bounds" transform="matrix(1,0,0,1,0.2400000000000091,-0.09999999999999432)"><svg viewBox="0 0 395.52 247.2" height="247.2" width="395.52"><g><svg></svg></g><g><svg viewBox="0 0 395.52 247.2" height="247.2" width="395.52"><g transform="matrix(1,0,0,1,75.54432,51.11213971830986)"><svg viewBox="0 0 244.43135999999998 144.97572056338026" height="144.97572056338026" width="244.43135999999998"><g><svg viewBox="0 0 244.43135999999998 144.97572056338026" height="144.97572056338026" width="244.43135999999998"><g><svg viewBox="0 0 244.43135999999998 144.97572056338026" height="144.97572056338026" width="244.43135999999998"><g><svg viewBox="0 0 244.43135999999998 144.97572056338026" height="144.97572056338026" width="244.43135999999998"><g id="textblocktransform"><svg viewBox="0 0 244.43135999999998 144.97572056338026" height="144.97572056338026" width="244.43135999999998" id="textblock"><g><svg viewBox="0 0 244.43135999999998 144.97572056338026" height="144.97572056338026" width="244.43135999999998"><g transform="matrix(1,0,0,1,0,0)"><svg width="244.43135999999998" viewBox="3.490000009536743 -37.0099983215332 62.39999771118164 37.0099983215332" height="144.97572056338026" data-palette-color="#ffffff"><path d="M3.49-32.79L3.49-37.01 30-37.01 30-26.54 25-26.54 25-32.79 11.79-32.79 11.79-20.9 24.51-20.9 24.51-16.8 11.79-16.8 11.79-4.2 15.5-4.2 15.5 0 3.49 0 3.49-4.2 7.01-4.2 7.01-32.79 3.49-32.79ZM53.88 0L53.88-4.2 56.96-4.2 54.03-12.6 39.79-12.6 36.94-4.2 40.74-4.2 40.74 0 28.73 0 28.73-4.2 31.96-4.2 43.48-37.01 50.68-37.01 62.18-4.2 65.89-4.2 65.89 0 53.88 0ZM46.85-33.2L41.18-16.65 52.61-16.65 46.85-33.2Z" opacity="1" transform="matrix(1,0,0,1,0,0)" fill="#ffffff" class="wordmark-text-0" data-fill-palette-color="primary" id="text-0"></path></svg></g></svg></g></svg></g></svg></g></svg></g></svg></g></svg></g><path d="M254.355 45.112L254.355 1.716 10.587 1.716 10.587 245.484 254.355 245.484 254.355 202.088 241.281 202.088 241.281 232.41 23.661 232.41 23.661 14.79 241.281 14.79 241.281 45.112Z" fill="#ffffff" stroke="transparent" data-fill-palette-color="primary"></path></svg></g><defs></defs></svg><rect width="395.52" height="247.2" fill="none" stroke="none" visibility="hidden"></rect></g></svg></g></svg>